<svg width="19" height="20" viewBox="0 0 19 20" fill="none" xmlns="http://www.w3.org/2000/svg">
<path d="M11.7573 17.4778V18.0629C11.7578 18.2846 11.6795 18.4991 11.5369 18.6674C11.3942 18.8358 11.1965 18.9469 10.9796 18.9806L10.8368 19.5116C10.7996 19.652 10.7175 19.7761 10.6034 19.8647C10.4893 19.9532 10.3495 20.0012 10.2057 20.0012H8.79065C8.6468 20.0012 8.50697 19.9532 8.39286 19.8647C8.27876 19.7761 8.19675 19.652 8.15956 19.5116L8.02042 18.9806C7.80247 18.9469 7.60367 18.8355 7.46007 18.6664C7.31648 18.4974 7.2376 18.2819 7.23775 18.0591V17.4753C7.23759 17.4012 7.25191 17.3279 7.27988 17.2594C7.30786 17.191 7.34894 17.1287 7.40077 17.0764C7.4526 17.024 7.51416 16.9825 7.5819 16.9542C7.64965 16.926 7.72225 16.9115 7.79555 16.9117H11.1983C11.3464 16.9127 11.4883 16.9727 11.5929 17.0787C11.6976 17.1847 11.7567 17.3281 11.7573 17.4778ZM14.3761 9.60136C14.3791 10.8777 13.8888 12.1048 13.0096 13.0211C12.3692 13.6942 11.9508 14.5511 11.812 15.4742C11.7817 15.6661 11.6846 15.8408 11.5382 15.9667C11.3917 16.0927 11.2055 16.1615 11.0132 16.1609H7.98066C7.78933 16.162 7.60398 16.0937 7.45829 15.9683C7.31261 15.843 7.21627 15.669 7.18682 15.4779C7.04394 14.5521 6.62281 13.6931 5.98053 13.0173C5.42778 12.4361 5.02459 11.7267 4.8063 10.9514C4.58801 10.176 4.56131 9.3584 4.72851 8.57018C4.89572 7.78197 5.25173 7.04725 5.76534 6.43045C6.27894 5.81364 6.93446 5.33359 7.67439 5.0324C8.41433 4.7312 9.21608 4.61805 10.0094 4.70287C10.8026 4.7877 11.5632 5.06791 12.2244 5.51892C12.8856 5.96994 13.4272 6.57798 13.8017 7.28975C14.1761 8.00152 14.3721 8.79523 14.3724 9.60136H14.3761ZM10.0504 6.61726C10.0504 6.46976 9.99238 6.32828 9.88917 6.22398C9.78596 6.11968 9.64597 6.06112 9.50001 6.06112C8.567 6.06178 7.67238 6.43652 7.01253 7.10309C6.35267 7.76967 5.98151 8.67361 5.98053 9.61645C5.98725 9.75922 6.0481 9.89389 6.15046 9.99252C6.25282 10.0912 6.38882 10.1462 6.53026 10.1462C6.67169 10.1462 6.8077 10.0912 6.91006 9.99252C7.01241 9.89389 7.07326 9.75922 7.07998 9.61645C7.08097 8.96827 7.33629 8.34694 7.78996 7.88872C8.24363 7.43051 8.8586 7.1728 9.50001 7.17213C9.57227 7.17246 9.64388 7.15836 9.71072 7.1306C9.77756 7.10285 9.83831 7.06203 9.88946 7.01046C9.94061 6.95888 9.98116 6.89756 10.0088 6.83008C10.0364 6.7626 10.0505 6.69028 10.0504 6.61726ZM9.50001 3.05691C9.64597 3.05691 9.78596 2.9983 9.88917 2.894C9.99238 2.7897 10.0504 2.64827 10.0504 2.50077V0.554851C10.0436 0.412086 9.98279 0.277413 9.88044 0.178778C9.77808 0.0801435 9.64207 0.0251465 9.50064 0.0251465C9.3592 0.0251465 9.2232 0.0801435 9.12084 0.178778C9.01848 0.277413 8.95762 0.412086 8.95091 0.554851V2.50077C8.95074 2.5738 8.96482 2.64613 8.99233 2.71367C9.01983 2.7812 9.06024 2.84263 9.11123 2.89438C9.16222 2.94614 9.22279 2.98724 9.2895 3.01534C9.35621 3.04344 9.42774 3.058 9.50001 3.05817V3.05691ZM3.0263 9.59634C3.0263 9.44884 2.96831 9.3074 2.8651 9.2031C2.76189 9.0988 2.62191 9.0402 2.47595 9.0402H0.550365C0.475976 9.03662 0.401642 9.04834 0.331866 9.07464C0.26209 9.10094 0.198314 9.14132 0.144417 9.19325C0.0905201 9.24519 0.047616 9.30762 0.0183009 9.37681C-0.0110141 9.44599 -0.026123 9.52046 -0.026123 9.59572C-0.026123 9.67098 -0.0110141 9.74546 0.0183009 9.81464C0.047616 9.88382 0.0905201 9.94626 0.144417 9.99819C0.198314 10.0501 0.26209 10.0905 0.331866 10.1168C0.401642 10.1431 0.475976 10.1548 0.550365 10.1512H2.47719C2.54935 10.1514 2.62083 10.1372 2.68752 10.1093C2.75422 10.0815 2.81481 10.0406 2.86583 9.98907C2.91686 9.93752 2.95729 9.87629 2.98483 9.80889C3.01237 9.7415 3.02646 9.66925 3.0263 9.59634ZM18.4497 9.0402H16.5228C16.4484 9.03662 16.3741 9.04834 16.3043 9.07464C16.2346 9.10094 16.1708 9.14132 16.1169 9.19325C16.063 9.24519 16.0201 9.30762 15.9908 9.37681C15.9615 9.44599 15.9463 9.52046 15.9463 9.59572C15.9463 9.67098 15.9615 9.74546 15.9908 9.81464C16.0201 9.88382 16.063 9.94626 16.1169 9.99819C16.1708 10.0501 16.2346 10.0905 16.3043 10.1168C16.3741 10.1431 16.4484 10.1548 16.5228 10.1512H18.4497C18.5241 10.1548 18.5984 10.1431 18.6682 10.1168C18.7379 10.0905 18.8017 10.0501 18.8556 9.99819C18.9095 9.94626 18.9524 9.88382 18.9817 9.81464C19.011 9.74546 19.0262 9.67098 19.0262 9.59572C19.0262 9.52046 19.011 9.44599 18.9817 9.37681C18.9524 9.30762 18.9095 9.24519 18.8556 9.19325C18.8017 9.14132 18.7379 9.10094 18.6682 9.07464C18.5984 9.04834 18.5241 9.03662 18.4497 9.0402ZM4.14687 14.2213L2.78032 15.6023C2.6844 15.7074 2.63236 15.846 2.63507 15.989C2.63778 16.132 2.69503 16.2684 2.79487 16.3697C2.89471 16.4711 3.02943 16.5296 3.17093 16.5331C3.31242 16.5365 3.44976 16.4846 3.55429 16.3881L4.92083 15.0072C4.97556 14.9567 5.01961 14.8956 5.05032 14.8274C5.08104 14.7593 5.0978 14.6855 5.09957 14.6107C5.10135 14.5358 5.08811 14.4614 5.06066 14.3918C5.0332 14.3222 4.9921 14.259 4.93983 14.2059C4.88756 14.1529 4.8252 14.111 4.7565 14.083C4.68781 14.0549 4.6142 14.0411 4.54011 14.0426C4.46602 14.044 4.39298 14.0606 4.3254 14.0913C4.25782 14.122 4.19709 14.1662 4.14687 14.2213ZM14.4656 5.13461C14.6103 5.13459 14.7491 5.07685 14.8519 4.97393L16.2185 3.59297C16.2729 3.54216 16.3167 3.48075 16.3471 3.41244C16.3774 3.34413 16.3939 3.27033 16.3954 3.19544C16.3968 3.12056 16.3833 3.04612 16.3556 2.97664C16.328 2.90716 16.2867 2.84406 16.2343 2.7911C16.1819 2.73813 16.1194 2.69643 16.0507 2.66846C15.9819 2.64049 15.9083 2.62682 15.8342 2.62831C15.7601 2.6298 15.687 2.6464 15.6194 2.67712C15.5518 2.70783 15.4911 2.75204 15.4408 2.80707L14.0742 4.18803C14.0229 4.2395 13.9822 4.3007 13.9544 4.36814C13.9266 4.43558 13.9123 4.50791 13.9123 4.58096C13.9123 4.65402 13.9266 4.72635 13.9544 4.79379C13.9822 4.86123 14.0229 4.92247 14.0742 4.97393C14.1787 5.07761 14.3192 5.13576 14.4656 5.13588V5.13461ZM4.14687 4.97014C4.19709 5.0252 4.25782 5.06942 4.3254 5.10013C4.39298 5.13085 4.46602 5.14743 4.54011 5.14887C4.6142 5.1503 4.68781 5.13656 4.7565 5.10848C4.8252 5.08041 4.88756 5.03858 4.93983 4.9855C4.9921 4.93243 5.0332 4.8692 5.06066 4.79965C5.08811 4.7301 5.10135 4.65563 5.09957 4.58077C5.0978 4.50591 5.08104 4.43219 5.05032 4.36404C5.01961 4.29589 4.97556 4.23477 4.92083 4.18428L3.55429 2.80332C3.50401 2.74829 3.44324 2.70408 3.37564 2.67336C3.30805 2.64265 3.23501 2.62604 3.16091 2.62455C3.08681 2.62306 3.01316 2.63673 2.94441 2.6647C2.87565 2.69268 2.81321 2.73438 2.7608 2.78734C2.70839 2.8403 2.6671 2.90341 2.63942 2.97289C2.61174 3.04237 2.59823 3.1168 2.59971 3.19169C2.60118 3.26657 2.61761 3.34038 2.64801 3.40869C2.6784 3.477 2.72214 3.5384 2.7766 3.58921L4.14687 4.97014ZM14.8532 14.2213C14.7487 14.1238 14.611 14.071 14.4688 14.0738C14.3267 14.0767 14.1912 14.135 14.0906 14.2366C13.9901 14.3382 13.9324 14.4752 13.9296 14.6188C13.9267 14.7625 13.979 14.9016 14.0755 15.0072L15.442 16.3881C15.5466 16.4846 15.6839 16.5365 15.8254 16.5331C15.9669 16.5296 16.1016 16.4711 16.2014 16.3697C16.3013 16.2684 16.3585 16.132 16.3612 15.989C16.3639 15.846 16.3119 15.7074 16.216 15.6023L14.8532 14.2213Z" fill="#32B9BD"/>
</svg>
